<svg width="51" height="51" viewBox="0 0 51 51" fill="none" xmlns="http://www.w3.org/2000/svg">
<path d="M24.2206 26.1009C22.9083 26.1009 21.8406 27.1686 21.8406 28.4808C21.8406 29.7931 22.9083 30.8608 24.2206 30.8608C25.5329 30.8608 26.6005 29.7931 26.6005 28.4808C26.6006 27.1685 25.533 26.1009 24.2206 26.1009Z" fill="#C9C9C9"/>
<path d="M24.2206 23.1712C24.9585 23.1712 25.5588 22.5709 25.5588 21.8329C25.5588 21.095 24.9585 20.4947 24.2206 20.4947C23.4827 20.4947 22.8824 21.095 22.8824 21.8329C22.8824 22.5708 23.4828 23.1712 24.2206 23.1712Z" fill="#C9C9C9"/>
<path d="M25.7241 0.725677C11.9066 0.725677 0.724121 11.907 0.724121 25.7257C0.724121 39.5432 11.9055 50.7257 25.7241 50.7257C39.5416 50.7257 50.7241 39.5443 50.7241 25.7257C50.7241 11.9082 39.5428 0.725677 25.7241 0.725677ZM15.9634 32.4215C15.9634 33.2305 15.3075 33.8863 14.4985 33.8863C13.6896 33.8863 13.0337 33.2305 13.0337 32.4215V20.5906H11.6567C10.8478 20.5906 10.1919 19.9348 10.1919 19.1258C10.1919 18.3168 10.8478 17.6609 11.6567 17.6609H14.4985C15.3075 17.6609 15.9634 18.3168 15.9634 19.1258V32.4215ZM24.2206 33.7904C19.2762 33.7904 17.0205 27.5846 20.8194 24.4074C18.701 21.6154 20.6952 17.565 24.2206 17.565C27.7411 17.565 29.744 21.6103 27.6218 24.4074C31.4278 27.5905 29.1541 33.7904 24.2206 33.7904ZM39.7915 23.9105H37.8384V25.8679C37.8384 26.6768 37.1825 27.3327 36.3735 27.3327C35.5645 27.3327 34.9087 26.6768 34.9087 25.8679V23.9105H32.9556C32.1466 23.9105 31.4907 23.2547 31.4907 22.4457C31.4907 21.6367 32.1466 20.9809 32.9556 20.9809H34.9087V19.0298C34.9087 18.2208 35.5645 17.5649 36.3735 17.5649C37.1825 17.5649 37.8384 18.2208 37.8384 19.0298V20.9809H39.7915C40.6005 20.9809 41.2563 21.6367 41.2563 22.4457C41.2563 23.2547 40.6005 23.9105 39.7915 23.9105Z" fill="#C9C9C9"/>
</svg>
