<svg width="51" height="50" viewBox="0 0 51 50" fill="none" xmlns="http://www.w3.org/2000/svg">
<g clip-path="url(#clip0)">
<path d="M4.17295 21.5C4.43535 21.6024 4.73966 21.6024 5.00207 21.4796L13.1985 17.845C13.7232 17.5993 13.9436 16.985 13.6917 16.4731C13.4504 15.9817 12.8522 15.7564 12.3379 15.9817L6.59724 18.531C9.33637 10.535 16.9661 5.19069 25.7502 5.19069C34.9542 5.19069 43.0036 11.1903 45.3229 19.78C45.4698 20.3226 46.0471 20.6503 46.6033 20.5069C47.1595 20.3636 47.4954 19.8004 47.3484 19.2579C44.7876 9.7774 35.909 3.1431 25.7501 3.1431C16.0635 3.1431 7.63612 9.04025 4.59267 17.8655L2.17891 11.9787C2.00053 11.4462 1.40233 11.1494 0.856565 11.3234C0.310804 11.4974 0.00648841 12.081 0.184867 12.6134C0.195394 12.6544 0.216351 12.6953 0.237308 12.7362L3.58517 20.9267C3.69015 21.1827 3.90002 21.3977 4.17295 21.5Z" fill="#C9C9C9"/>
<path d="M50.4865 36.6114C50.476 36.5909 50.4656 36.5704 50.4656 36.5499L47.1177 28.3595C47.0127 28.1035 46.8029 27.8885 46.53 27.7862C46.2676 27.6838 45.9633 27.694 45.7009 27.8066L37.5045 31.4412C36.9692 31.6562 36.7174 32.2602 36.9378 32.7823C37.1581 33.3045 37.7773 33.5502 38.3125 33.3352C38.3335 33.3249 38.3545 33.3148 38.3755 33.3045L44.1162 30.7552C41.3561 38.7512 33.7158 44.0955 24.9422 44.0955C15.7383 44.0955 7.6888 38.0959 5.36948 29.5062C5.22259 28.9636 4.64534 28.6359 4.08915 28.7793C3.53296 28.9226 3.19706 29.4857 3.34406 30.0283C5.89429 39.5191 14.7834 46.1431 24.9423 46.1431C34.629 46.1431 43.0458 40.2459 46.0998 31.4206L48.5136 37.3075C48.713 37.8399 49.3112 38.1164 49.8569 37.9218C50.4025 37.7274 50.6859 37.1438 50.4865 36.6114Z" fill="#C9C9C9"/>
<line x1="-0.190296" y1="49.6429" x2="49.8097" y2="0.642895" stroke="#C9C9C9"/>
</g>
<defs>
<clipPath id="clip0">
<rect width="50" height="50" fill="white" transform="translate(0.133911)"/>
</clipPath>
</defs>
</svg>
