<svg width="42" height="42" viewBox="0 0 42 42" fill="none" xmlns="http://www.w3.org/2000/svg">
<g clip-path="url(#clip0)">
<path d="M2.62498 2.85783C-0.675517 6.28608 -1.75089e-05 9.92783 -1.75089e-05 20.9913C-1.75089e-05 30.1788 -1.60302 39.3891 6.78648 41.5573C9.40623 42.2311 32.6182 42.2311 35.2345 41.5538C38.7275 40.6526 41.5695 37.8193 41.958 32.8791C42.0122 32.1896 42.0122 9.80533 41.9562 9.10183C41.5432 3.83958 38.304 0.806831 34.0357 0.192581C33.0575 0.0508312 32.8615 0.0088312 27.8425 8.11964e-05C10.0397 0.0088312 6.13723 -0.783919 2.62498 2.85783Z" fill="url(#paint0_linear)"/>
<path d="M20.9965 5.49351C14.6423 5.49351 8.60829 4.92826 6.30354 10.8433C5.35154 13.2863 5.48979 16.459 5.48979 21.002C5.48979 24.9885 5.36204 28.7353 6.30354 31.159C8.60304 37.0775 14.686 36.5105 20.993 36.5105C27.0778 36.5105 33.3515 37.144 35.6843 31.159C36.638 28.6915 36.498 25.566 36.498 21.002C36.498 14.9435 36.8323 11.0323 33.894 8.09576C30.919 5.12076 26.8958 5.49351 20.9895 5.49351H20.9965ZM19.607 8.28826C32.8615 8.26726 34.5485 6.79376 33.6175 27.2635C33.2868 34.5033 27.7743 33.7088 20.9983 33.7088C8.64329 33.7088 8.28804 33.3553 8.28804 20.995C8.28804 8.49126 9.26804 8.29526 19.607 8.28476V8.28826ZM29.274 10.8625C28.2468 10.8625 27.4138 11.6955 27.4138 12.7228C27.4138 13.75 28.2468 14.583 29.274 14.583C30.3013 14.583 31.1343 13.75 31.1343 12.7228C31.1343 11.6955 30.3013 10.8625 29.274 10.8625ZM20.9965 13.0378C16.5988 13.0378 13.034 16.6043 13.034 21.002C13.034 25.3998 16.5988 28.9645 20.9965 28.9645C25.3943 28.9645 28.9573 25.3998 28.9573 21.002C28.9573 16.6043 25.3943 13.0378 20.9965 13.0378ZM20.9965 15.8325C27.8303 15.8325 27.839 26.1715 20.9965 26.1715C14.1645 26.1715 14.154 15.8325 20.9965 15.8325Z" fill="white"/>
</g>
<defs>
<linearGradient id="paint0_linear" x1="2.70552" y1="39.3175" x2="41.7401" y2="5.53354" gradientUnits="userSpaceOnUse">
<stop stop-color="#FFDD55"/>
<stop offset="0.5" stop-color="#FF543E"/>
<stop offset="1" stop-color="#C837AB"/>
</linearGradient>
<clipPath id="clip0">
<rect width="42" height="42" fill="white"/>
</clipPath>
</defs>
</svg>
